<svg xmlns="http://www.w3.org/2000/svg" xmlns:xlink="http://www.w3.org/1999/xlink" viewBox="0,0,256,256" width="30px" height="30px" fill-rule="nonzero"><g fill="#3f3f3f" fill-rule="nonzero" stroke="none" stroke-width="1" stroke-linecap="butt" stroke-linejoin="miter" stroke-miterlimit="10" stroke-dasharray="" stroke-dashoffset="0" font-family="none" font-weight="none" font-size="none" text-anchor="none" style="mix-blend-mode: normal"><g transform="scale(8.53333,8.53333)"><path d="M1.70703,0.29297l-1.41406,1.41406l28,28l1.41406,-1.41406l-6.02539,-6.02539c4.09582,-2.77324 6.11752,-6.65094 6.14453,-6.70312c0.11345,-0.16636 0.17404,-0.36309 0.17383,-0.56445c-0.00015,-0.22556 -0.07655,-0.44444 -0.2168,-0.62109c-0.10419,-0.16773 -5.86491,-9.37891 -14.7832,-9.37891c-2.53014,0 -4.80067,0.75019 -6.76562,1.82031zM15,8c3.866,0 7,3.134 7,7c0,1.57196 -0.52996,3.01285 -1.40625,4.17969l-2.1543,-2.1543c0.35353,-0.59328 0.56055,-1.28367 0.56055,-2.02539c0,-2.209 -1.791,-4 -4,-4c-0.74172,0 -1.43211,0.20701 -2.02539,0.56055l-2.1543,-2.1543c1.16684,-0.87629 2.60773,-1.40625 4.17969,-1.40625zM4.95117,9.07617c-2.97201,2.49995 -4.67619,5.21086 -4.73242,5.30078c-0.14136,0.17692 -0.21848,0.39659 -0.21875,0.62305c0.0002,0.19589 0.05792,0.38741 0.16602,0.55078c0.01719,0.03548 4.85282,9.44922 14.83398,9.44922c1.85,0 3.52053,-0.32652 5.01953,-0.85352l-2.58789,-2.58984c-0.759,0.282 -1.57564,0.44336 -2.43164,0.44336c-3.866,0 -7,-3.134 -7,-7c0,-0.856 0.16136,-1.67264 0.44336,-2.43164zM11.01172,15.11133c0.06,2.117 1.758,3.81695 3.875,3.87695z"></path></g></g></svg>